<svg width="18" height="18" viewBox="0 0 18 18" fill="none" xmlns="http://www.w3.org/2000/svg">
<path fill-rule="evenodd" clip-rule="evenodd" d="M6.49996 17.9583H11.5C16.025 17.9583 17.9583 16.025 17.9583 11.5V6.49996C17.9583 1.97496 16.025 0.041626 11.5 0.041626H6.49996C1.97496 0.041626 0.041626 1.97496 0.041626 6.49996V11.5C0.041626 16.025 1.97496 17.9583 6.49996 17.9583ZM1.29163 6.49996C1.29163 2.65829 2.65829 1.29163 6.49996 1.29163H11.5C15.3416 1.29163 16.7083 2.65829 16.7083 6.49996V11.5C16.7083 15.3416 15.3416 16.7083 11.5 16.7083H6.49996C2.65829 16.7083 1.29163 15.3416 1.29163 11.5V6.49996ZM8.5583 11.2417C8.6833 11.3667 8.84163 11.4251 8.99996 11.4251C9.1583 11.4251 9.31663 11.3667 9.44163 11.2417L12.3833 8.30006C12.625 8.05839 12.625 7.65839 12.3833 7.41672C12.1416 7.17506 11.7416 7.17506 11.5 7.41672L8.99996 9.91672L6.49996 7.41672C6.2583 7.17506 5.8583 7.17506 5.61663 7.41672C5.37496 7.65839 5.37496 8.05839 5.61663 8.30006L8.5583 11.2417Z" fill="#999FA6"/>
</svg>
